<svg width="28" height="28" viewBox="0 0 28 28" fill="none" xmlns="http://www.w3.org/2000/svg">
<g id="clipboard">
<path id="Vector" d="M18.6667 4.66663H21.0001C21.6189 4.66663 22.2124 4.91246 22.65 5.35004C23.0876 5.78763 23.3334 6.38112 23.3334 6.99996V23.3333C23.3334 23.9521 23.0876 24.5456 22.65 24.9832C22.2124 25.4208 21.6189 25.6666 21.0001 25.6666H7.00008C6.38124 25.6666 5.78775 25.4208 5.35017 24.9832C4.91258 24.5456 4.66675 23.9521 4.66675 23.3333V6.99996C4.66675 6.38112 4.91258 5.78763 5.35017 5.35004C5.78775 4.91246 6.38124 4.66663 7.00008 4.66663H9.33341" stroke="black" stroke-width="2.5" stroke-linecap="round" stroke-linejoin="round"/>
<path id="Vector_2" d="M17.4999 2.33337H10.4999C9.85559 2.33337 9.33325 2.85571 9.33325 3.50004V5.83337C9.33325 6.47771 9.85559 7.00004 10.4999 7.00004H17.4999C18.1443 7.00004 18.6666 6.47771 18.6666 5.83337V3.50004C18.6666 2.85571 18.1443 2.33337 17.4999 2.33337Z" stroke="black" stroke-width="2.5" stroke-linecap="round" stroke-linejoin="round"/>
</g>
</svg>
